<svg id="Layer_1" data-name="Layer 1" xmlns="http://www.w3.org/2000/svg" viewBox="0 0 566.37 335.99"><defs><style>.cls-1{fill:#f59e0b;}.cls-2{fill:#fcfcfc;}.cls-3,.cls-4{isolation:isolate;fill:#fff;}.cls-3{font-size:58.65px;font-family:Poppins-Medium, Poppins;font-weight:500;}.cls-4{font-size:34.67px;font-family:Poppins-Light, Poppins;font-weight:300;}</style></defs><path class="cls-1" d="M362.73,596.51c-34.66-8.34-66.63-23.62-97.19-42.27C247.16,543,231.42,529,219.64,511c-17.52-26.77-18.63-55-3.18-82.68,13.21-23.63,33.48-40.94,56.73-54.71,28.13-16.66,58.42-28,89.66-37.22,23.64-7,47.72-11.64,72-15.28,36.91-5.51,74.05-6.53,111.33-5.76A543.91,543.91,0,0,1,691.93,338c26.13,7.84,51.42,17.46,75.25,30.78,1.68.94,3.69,1.56,4.82,3.63-2.45,1-4.37-.56-6.19-1.25-31.13-11.92-63.55-19.12-96.14-25.24-33.59-6.32-67.71-8.1-101.88-8.76a677.55,677.55,0,0,0-106.88,6.79c-43.2,6-85.33,16.45-125.51,33.43-30.32,12.82-58.83,29.26-79.85,55.44-12.19,15.19-19.81,32.84-18.13,53.09,1.34,16.15,7,30.62,17.71,43a184.6,184.6,0,0,0,71.32,51c10.41,4.25,20.51,9.28,30.95,13.46C359.5,594.18,359.83,598.33,362.73,596.51Z" transform="translate(-205.63 -315.16)"/><path class="cls-2" d="M496.25,594.75c-9.45,7.27-17.75,14-26.4,20.17-4.2,3-5.38,6.08-3.83,11.11,2.06,6.67,3.32,13.6,4.77,20.45.91,4.29-.52,5.59-4.6,4.06-8.61-3.23-17.27-6.39-25.66-10.13a21,21,0,0,0-17.74-.16c-7.81,3.25-15.76,6.17-23.65,9.26-2.06.81-4.4,2-6.23.46-1.62-1.37-.24-3.55.15-5.35,1.38-6.42,2.6-12.88,4.19-19.24,1-4.06.19-6.81-3.4-9.34-7.89-5.56-15.49-11.54-23.15-17.41-1.33-1-3.06-1.75-3.64-4.23l30.37-3.75c3.19-.39,6.38-.74,9.57-1.13,3.39-.41,5.4-2.69,7.12-5.34,4.45-6.87,8.86-13.77,13.35-20.62,3-4.64,4.35-4.59,7.34.2,4.1,6.58,8.21,13.15,12.22,19.79,2.36,3.92,5.5,5.86,10.26,6.31C469.87,591.06,482.55,591.72,496.25,594.75Zm-18.73,2.86c-3.93-1.6-8.06-1.83-12.23-1.72a41.75,41.75,0,0,0-10-.93c-5.77.26-9.64-2.41-12.37-7.38-2.61-4.73-5.48-9.33-8.41-13.87-2.4-3.7-3.89-3.67-6.44.06-3.38,5-6.53,10.05-9.91,15s-8.07,7-14.28,6.69c-7.2-.34-14.32,1.24-22.48,2.69,4.94,3.81,9.12,6.91,13.16,10.18,11.88,9.58,11.54,6.52,7.9,22.9-.79,3.57-2.12,7.16-.91,11.25,8.16-3.24,16-6.31,23.86-9.49a15.43,15.43,0,0,1,13,.24c6.76,3.07,13.83,5.49,20.8,8.1,2.14.8,3.83.94,2.81-2.43-1.39-4.6-2.33-9.33-3.65-13.95-1.76-6.1-1.28-7.78,3.68-11.68,3.21-2.52,6.37-5.12,9.55-7.69l1.75-1.41.77-.61.6-.67C475.11,600.85,480.43,601.43,477.52,597.61Z" transform="translate(-205.63 -315.16)"/><path class="cls-2" d="M474.1,603.56l.6-.67Z" transform="translate(-205.63 -315.16)"/><text class="cls-3" transform="translate(147.37 116.95) scale(1.19 1)">Bright Star</text><text class="cls-4" transform="translate(148.79 177.13) scale(1.19 1)">General Trading</text><text class="cls-4" transform="translate(151.02 225.85) scale(1.19 1)">&amp; Transport Co. LTD</text></svg>